<svg width="28" height="28" viewBox="0 0 28 28" fill="none" xmlns="http://www.w3.org/2000/svg">
<rect width="28" height="28" rx="6" fill="#E3F0FF"/>
<path d="M21.5 10.5c-.4.2-.8.3-1.2.4.4-.2.7-.6.9-1-.4.2-.8.4-1.3.5-.4-.4-1-.7-1.6-.7-1.2 0-2.1 1-2.1 2.1 0 .2 0 .3.1.5-1.7-.1-3.2-.9-4.2-2.1-.2.3-.3.6-.3 1 0 .7.4 1.3 1 1.7-.3 0-.6-.1-.8-.2v.1c0 1 .7 1.8 1.6 2-.2 0-.3.1-.5.1-.1 0-.2 0-.3-.1.2.7.9 1.2 1.7 1.2-.6.5-1.3.8-2.1.8H8c.8.5 1.7.8 2.7.8 3.2 0 5-2.7 5-5v-.2c.3-.2.6-.5.8-.8z" fill="#2D72D9"/>
</svg> 